REM DIRINDEX 1\6,1\2\7,1\2\8,1\2\9,1\3\10,1\3\11,1\4\12,1\4\13,1\4\14,1\5\15,1\5\16,1\5\17
REM DIRNAME cjc041,folder01,folder02,folder03,folder04,folder05,folder06,folder07,folder08,folder09,folder10,folder11,folder12,folder13,folder14,folder15,folder16
TITLE ""
FILE "3Q_t_0632-0647.mp3" MP3
  TRACK 01 AUDIO
    TITLE "10:cjc041_2873"
    INDEX 01 00:00:00
  TRACK 02 AUDIO
    TITLE "0:"
    INDEX 01 00:01:05
  TRACK 03 AUDIO
    TITLE "11:cjc041_2874"
    INDEX 01 00:01:64
  TRACK 04 AUDIO
    TITLE "0:"
    INDEX 01 00:02:65
  TRACK 05 AUDIO
    TITLE "10:cjc041_2875"
    INDEX 01 00:03:45
  TRACK 06 AUDIO
    TITLE "0:"
    INDEX 01 00:04:74
  TRACK 07 AUDIO
    TITLE "11:cjc041_2876"
    INDEX 01 00:05:50
  TRACK 08 AUDIO
    TITLE "0:"
    INDEX 01 00:07:25
  TRACK 09 AUDIO
    TITLE "10:cjc041_2877"
    INDEX 01 00:08:03
  TRACK 10 AUDIO
    TITLE "0:"
    INDEX 01 00:09:34
  TRACK 11 AUDIO
    TITLE "11:cjc041_2878"
    INDEX 01 00:10:04
  TRACK 12 AUDIO
    TITLE "0:"
    INDEX 01 00:11:52
  TRACK 13 AUDIO
    TITLE "10:cjc041_2879"
    INDEX 01 00:12:28
  TRACK 14 AUDIO
    TITLE "0:"
    INDEX 01 00:13:43
  TRACK 15 AUDIO
    TITLE "11:cjc041_2880"
    INDEX 01 00:14:21
  TRACK 16 AUDIO
    TITLE "0:"
    INDEX 01 00:17:31
  TRACK 17 AUDIO
    TITLE "10:cjc041_2881"
    INDEX 01 00:18:07
  TRACK 18 AUDIO
    TITLE "0:"
    INDEX 01 00:19:20
  TRACK 19 AUDIO
    TITLE "11:cjc041_2882"
    INDEX 01 00:19:73
  TRACK 20 AUDIO
    TITLE "0:"
    INDEX 01 00:22:07
  TRACK 21 AUDIO
    TITLE "10:cjc041_2883"
    INDEX 01 00:22:64
  TRACK 22 AUDIO
    TITLE "0:"
    INDEX 01 00:24:04
  TRACK 23 AUDIO
    TITLE "11:cjc041_2884"
    INDEX 01 00:24:57
  TRACK 24 AUDIO
    TITLE "0:"
    INDEX 01 00:26:20
  TRACK 25 AUDIO
    TITLE "10:cjc041_2885"
    INDEX 01 00:27:02
  TRACK 26 AUDIO
    TITLE "0:"
    INDEX 01 00:28:19
  TRACK 27 AUDIO
    TITLE "11:cjc041_2886"
    INDEX 01 00:28:74
  TRACK 28 AUDIO
    TITLE "0:"
    INDEX 01 00:30:40
  TRACK 29 AUDIO
    TITLE "10:cjc041_2887"
    INDEX 01 00:31:20
  TRACK 30 AUDIO
    TITLE "0:"
    INDEX 01 00:32:29
  TRACK 31 AUDIO
    TITLE "11:cjc041_2888"
    INDEX 01 00:33:09
  TRACK 32 AUDIO
    TITLE "0:"
    INDEX 01 00:34:55
  TRACK 33 AUDIO
    TITLE "10:cjc041_2889"
    INDEX 01 00:35:37
  TRACK 34 AUDIO
    TITLE "0:"
    INDEX 01 00:36:50
  TRACK 35 AUDIO
    TITLE "11:cjc041_2890"
    INDEX 01 00:37:26
  TRACK 36 AUDIO
    TITLE "0:"
    INDEX 01 00:39:58
  TRACK 37 AUDIO
    TITLE "10:cjc041_2891"
    INDEX 01 00:40:34
  TRACK 38 AUDIO
    TITLE "0:"
    INDEX 01 00:41:34
  TRACK 39 AUDIO
    TITLE "11:cjc041_2892"
    INDEX 01 00:42:12
  TRACK 40 AUDIO
    TITLE "0:"
    INDEX 01 00:43:62
  TRACK 41 AUDIO
    TITLE "10:cjc041_2893"
    INDEX 01 00:44:44
  TRACK 42 AUDIO
    TITLE "0:"
    INDEX 01 00:45:47
  TRACK 43 AUDIO
    TITLE "11:cjc041_2894"
    INDEX 01 00:46:17
  TRACK 44 AUDIO
    TITLE "0:"
    INDEX 01 00:47:62
  TRACK 45 AUDIO
    TITLE "10:cjc041_2895"
    INDEX 01 00:48:40
  TRACK 46 AUDIO
    TITLE "0:"
    INDEX 01 00:49:61
  TRACK 47 AUDIO
    TITLE "11:cjc041_2896"
    INDEX 01 00:50:37
  TRACK 48 AUDIO
    TITLE "0:"
    INDEX 01 00:54:40
  TRACK 49 AUDIO
    TITLE "10:cjc041_2897"
    INDEX 01 00:55:18
  TRACK 50 AUDIO
    TITLE "0:"
    INDEX 01 00:56:24
  TRACK 51 AUDIO
    TITLE "11:cjc041_2898"
    INDEX 01 00:56:74
  TRACK 52 AUDIO
    TITLE "0:"
    INDEX 01 00:58:52
  TRACK 53 AUDIO
    TITLE "10:cjc041_2899"
    INDEX 01 00:59:28
  TRACK 54 AUDIO
    TITLE "0:"
    INDEX 01 01:00:43
  TRACK 55 AUDIO
    TITLE "11:cjc041_2900"
    INDEX 01 01:01:21
  TRACK 56 AUDIO
    TITLE "0:"
    INDEX 01 01:02:67
  TRACK 57 AUDIO
    TITLE "10:cjc041_2901"
    INDEX 01 01:03:47
  TRACK 58 AUDIO
    TITLE "0:"
    INDEX 01 01:04:64
  TRACK 59 AUDIO
    TITLE "11:cjc041_2902"
    INDEX 01 01:05:40
  TRACK 60 AUDIO
    TITLE "0:"
    INDEX 01 01:07:15
  TRACK 61 AUDIO
    TITLE "10:cjc041_2903"
    INDEX 01 01:07:66
  TRACK 62 AUDIO
    TITLE "0:"
    INDEX 01 01:09:05
  TRACK 63 AUDIO
    TITLE "11:cjc041_2904"
    INDEX 01 01:09:57
  TRACK 64 AUDIO
    TITLE "0:"
    INDEX 01 01:10:61
